<?xml version="1.0" encoding="UTF-8"?>
<svg id="Layer_1" data-name="Layer 1" xmlns="http://www.w3.org/2000/svg" version="1.1" viewBox="0 0 64 50">
  <defs>
    <style>
      .cls-1 {
        fill: #ffe19d;
      }

      .cls-1, .cls-2, .cls-3, .cls-4 {
        stroke-width: 0px;
      }

      .cls-2 {
        fill: #ffe9d5;
      }

      .cls-3 {
        fill: #ffc250;
      }

      .cls-4 {
        fill: #ffd064;
      }
    </style>
  </defs>
  <path class="cls-3" d="M28.9,20.3c-6.4,2-16.8,0-16.9-8.9,0-8.9,11-3.6,11-3.6l5.9,12.5Z"/>
  <path class="cls-4" d="M15.1,6.4c4.5-.8,7.9,5.2,11.7,11.4,3.8,6.2,13.6,8.7,19.8,3.4,6.3-5.2,8.9-14.3,1.2-19.8-7.7-5.4-12.5,6.9-19.1,7.3-6.6.3-6.7-4.6-13.6-2.3Z"/>
  <circle class="cls-1" cx="47.2" cy="11.6" r="2"/>
  <circle class="cls-1" cx="43.4" cy="13.1" r="1.5"/>
  <circle class="cls-1" cx="46" cy="15.1" r="1.1"/>
  <g>
    <path class="cls-2" d="M3.7,41.6c-.3,0-.6,0-.9-.2-.2-.1-.4-.3-.6-.6-.1-.3-.2-.5-.2-.9s0-.6.2-.8c.1-.3.3-.4.6-.6.3-.1.5-.2.9-.2s.6,0,.8.2c.3.1.4.3.6.6.1.3.2.5.2.8s0,.6-.2.9c-.1.2-.3.4-.6.6-.2.1-.5.2-.8.2ZM3.7,41.3c.4,0,.7-.1.9-.4s.4-.6.4-1-.1-.7-.4-.9-.5-.4-.9-.4-.7.1-.9.4c-.2.2-.4.6-.4.9s.1.7.4,1c.2.2.5.4.9.4ZM3,40.8v-1.7h.8c.2,0,.3,0,.4.1s.2.2.2.4c0,.3-.1.4-.4.5l.4.7h-.5l-.4-.6h-.1v.6h-.4ZM3.4,39.8h.3c0,0,.1,0,.2,0,0,0,0,0,0-.2s0-.1,0-.1c0,0,0,0-.2,0h-.3v.4Z"/>
    <g>
      <path class="cls-2" d="M7,44v-4.9h1.8c.4,0,.7,0,1,.2.3.1.5.3.6.5.1.2.2.5.2.8s0,.5-.2.7c-.1.2-.3.4-.6.6-.3.1-.6.2-1,.2h-.9v1.8h-.9ZM8,41.4h.8c.3,0,.5,0,.7-.2s.2-.3.2-.6,0-.4-.2-.6c-.1-.1-.4-.2-.7-.2h-.8v1.5Z"/>
      <path class="cls-2" d="M12.2,44.1c-.3,0-.5,0-.7-.1s-.3-.2-.4-.4c0-.2-.1-.3-.1-.5s0-.4.2-.6.3-.3.5-.4c.2,0,.5-.1.9-.1h.9c0-.2,0-.3,0-.4,0-.1-.1-.2-.2-.3-.1,0-.2,0-.4,0s-.3,0-.5.1c-.1,0-.2.2-.2.4h-.9c0-.3.1-.5.2-.7.1-.2.3-.3.6-.4.2-.1.5-.2.8-.2s.6,0,.9.2c.2.1.4.3.6.5s.2.5.2.8v2.2h-.8v-.5c-.2,0-.2.2-.3.3,0,0-.2.1-.3.2,0,0-.2,0-.3.1-.1,0-.2,0-.4,0ZM12.4,43.4c.1,0,.2,0,.3,0,0,0,.2-.1.2-.2,0,0,.1-.2.2-.3,0,0,0-.2,0-.3h0s-.7,0-.7,0c-.1,0-.3,0-.4,0s-.2,0-.2.2c0,0,0,.1,0,.2s0,.2,0,.2c0,0,.1.1.2.1,0,0,.2,0,.3,0Z"/>
      <path class="cls-2" d="M15,45.5v-5.1h.8v.5c.2,0,.3-.2.4-.3s.2-.2.4-.2c.1,0,.3,0,.5,0,.3,0,.6,0,.9.2.3.2.5.4.6.7s.2.6.2,1,0,.7-.2,1-.4.5-.6.7c-.3.2-.5.2-.9.2s-.5,0-.7-.1-.3-.2-.5-.4v2h-.9ZM16.9,43.3c.2,0,.3,0,.5-.1.1,0,.3-.2.3-.4,0-.2.1-.3.1-.5s0-.4-.1-.5c0-.2-.2-.3-.3-.4-.1,0-.3-.1-.5-.1s-.3,0-.5.1-.3.2-.3.4-.1.3-.1.5,0,.4.1.5c0,.2.2.3.3.4s.3.1.5.1Z"/>
      <path class="cls-2" d="M20,40c-.2,0-.3,0-.4-.2-.1-.1-.2-.2-.2-.4s0-.3.2-.4c.1-.1.2-.2.4-.2s.3,0,.4.2c.1.1.2.2.2.4s0,.3-.2.4c-.1.1-.3.2-.4.2ZM19.5,44v-3.5h.9v3.5h-.9Z"/>
      <path class="cls-2" d="M22.9,44c-.2,0-.5,0-.6-.1-.2,0-.3-.2-.4-.4-.1-.2-.2-.4-.2-.7v-1.5h-.6v-.8h.6v-1h.9v1h.9v.8h-.9v1.5c0,.2,0,.3.1.3,0,0,.2,0,.4,0h.5v.8h-.6Z"/>
      <path class="cls-2" d="M25.4,44.1c-.3,0-.5,0-.7-.1s-.3-.2-.4-.4c0-.2-.1-.3-.1-.5s0-.4.2-.6.3-.3.5-.4c.2,0,.5-.1.9-.1h.9c0-.2,0-.3,0-.4,0-.1-.1-.2-.2-.3-.1,0-.2,0-.4,0s-.3,0-.5.1c-.1,0-.2.2-.2.4h-.9c0-.3.1-.5.2-.7.1-.2.3-.3.6-.4.2-.1.5-.2.8-.2s.6,0,.9.2c.2.1.4.3.6.5s.2.5.2.8v2.2h-.8v-.5c-.2,0-.2.2-.3.3,0,0-.2.1-.3.2,0,0-.2,0-.3.1-.1,0-.2,0-.4,0ZM25.7,43.4c.1,0,.2,0,.3,0,0,0,.2-.1.2-.2,0,0,.1-.2.2-.3,0,0,0-.2,0-.3h0s-.7,0-.7,0c-.1,0-.3,0-.4,0s-.2,0-.2.2c0,0,0,.1,0,.2s0,.2,0,.2c0,0,.1.1.2.1,0,0,.2,0,.3,0Z"/>
      <path class="cls-2" d="M30.5,44.1c-.5,0-.9-.1-1.3-.3-.4-.2-.6-.5-.8-.9-.2-.4-.3-.8-.3-1.3s0-.9.3-1.3c.2-.4.5-.7.8-.9.4-.2.8-.3,1.3-.3s1.1.1,1.5.4.6.7.7,1.2h-1c0-.3-.2-.5-.4-.6s-.4-.2-.8-.2-.5,0-.8.2c-.2.1-.4.3-.5.6-.1.3-.2.6-.2.9s0,.6.2.9c.1.3.3.4.5.6.2.1.5.2.8.2s.6,0,.8-.2c.2-.1.3-.3.4-.6h1c0,.5-.3.9-.7,1.2-.4.3-.9.4-1.5.4Z"/>
      <path class="cls-2" d="M35,44.1c-.3,0-.6,0-.9-.2-.3-.2-.5-.4-.6-.7-.2-.3-.2-.6-.2-1s0-.7.2-1c.2-.3.4-.5.6-.7.3-.2.6-.2.9-.2s.6,0,.9.2c.3.2.5.4.6.6.2.3.2.6.2,1s0,.7-.2,1c-.2.3-.4.5-.6.7-.3.2-.6.2-.9.2ZM35,43.3c.1,0,.3,0,.4-.1.1,0,.2-.2.3-.3,0-.2.1-.3.1-.6s0-.4-.1-.6c0-.2-.2-.3-.3-.3s-.3-.1-.4-.1-.3,0-.4.1-.2.2-.3.3c0,.2-.1.3-.1.6s0,.4.1.6.2.3.3.3c.1,0,.3.1.4.1Z"/>
      <path class="cls-2" d="M38,40c-.2,0-.3,0-.4-.2-.1-.1-.2-.2-.2-.4s0-.3.2-.4c.1-.1.2-.2.4-.2s.3,0,.4.2c.1.1.2.2.2.4s0,.3-.2.4c-.1.1-.3.2-.4.2ZM37.5,44v-3.5h.9v3.5h-.9Z"/>
      <path class="cls-2" d="M39.3,44v-3.5h.8v.6c.2-.2.3-.4.5-.5.2-.1.4-.2.7-.2s.5,0,.7.2.4.3.5.5c.1.2.2.5.2.9v2h-.9v-2c0-.3,0-.5-.2-.6-.1-.1-.3-.2-.6-.2s-.3,0-.4.1c-.1,0-.2.2-.3.3,0,.1-.1.3-.1.5v1.9h-.9Z"/>
      <path class="cls-2" d="M45,44v-.7c.3-.2.6-.5.9-.7.3-.2.5-.5.8-.7.2-.2.4-.5.5-.7s.2-.4.2-.7,0-.3,0-.4c0-.1-.1-.2-.2-.3-.1,0-.2-.1-.4-.1s-.3,0-.4.1c-.1,0-.2.2-.3.3,0,.1,0,.3,0,.4h-.9c0-.4,0-.7.2-.9.2-.2.4-.4.6-.5s.5-.2.8-.2.6,0,.9.2c.2.1.4.3.5.5.1.2.2.5.2.8s0,.4-.1.6c0,.2-.2.4-.3.6s-.3.4-.5.6c-.2.2-.4.3-.5.5-.2.2-.4.3-.5.5h2.1v.8h-3.4Z"/>
      <path class="cls-2" d="M51,44.1c-.5,0-.8-.1-1.2-.3-.3-.2-.6-.5-.7-.9-.2-.4-.3-.8-.3-1.3s0-.9.3-1.3.4-.7.7-.9c.3-.2.7-.3,1.2-.3s.8.1,1.1.3c.3.2.6.5.7.9s.3.8.3,1.3,0,.9-.3,1.3c-.2.4-.4.7-.7.9-.3.2-.7.3-1.1.3ZM51,43.2c.2,0,.4,0,.6-.2.2-.1.3-.3.4-.6s.2-.6.2-.9,0-.6-.2-.9-.2-.4-.4-.6-.4-.2-.6-.2-.4,0-.6.2-.3.3-.4.6c0,.3-.1.6-.1.9s0,.6.1.9c0,.3.2.4.4.6.2.1.4.2.6.2Z"/>
      <path class="cls-2" d="M53.7,44v-.7c.3-.2.6-.5.9-.7.3-.2.5-.5.8-.7.2-.2.4-.5.5-.7s.2-.4.2-.7,0-.3,0-.4c0-.1-.1-.2-.2-.3-.1,0-.2-.1-.4-.1s-.3,0-.4.1c-.1,0-.2.2-.3.3,0,.1,0,.3,0,.4h-.9c0-.4,0-.7.2-.9.2-.2.4-.4.6-.5s.5-.2.8-.2.6,0,.9.2c.2.1.4.3.5.5.1.2.2.5.2.8s0,.4-.1.6c0,.2-.2.4-.3.6s-.3.4-.5.6c-.2.2-.4.3-.5.5-.2.2-.4.3-.5.5h2.1v.8h-3.4Z"/>
      <path class="cls-2" d="M60,44v-.9h-2.4v-.8l2.3-3.3h1.1v3.2h.6v.8h-.6v.9h-.9ZM58.6,42.3h1.5v-2.2l-1.5,2.2Z"/>
    </g>
  </g>
</svg>