<?xml version="1.0" encoding="UTF-8"?>
<svg id="Layer_1" data-name="Layer 1" xmlns="http://www.w3.org/2000/svg" version="1.1" viewBox="0 0 151 24">
  <defs>
    <style>
      .cls-1 {
        fill: #f7931a;
      }

      .cls-1, .cls-2, .cls-3, .cls-4 {
        stroke-width: 0px;
      }

      .cls-2 {
        fill: #ffe19d;
      }

      .cls-3 {
        fill: #ffc250;
      }

      .cls-4 {
        fill: #ffd064;
      }
    </style>
  </defs>
  <path class="cls-3" d="M16.9,20.3C10.5,22.3,0,20.2,0,11.3c0-8.9,11-3.6,11-3.6l5.9,12.5Z"/>
  <path class="cls-4" d="M3.1,6.4c4.5-.8,7.9,5.2,11.7,11.4,3.8,6.2,13.6,8.7,19.8,3.4,6.3-5.2,8.9-14.3,1.2-19.8-7.7-5.4-12.5,6.9-19.1,7.3-6.6.3-6.7-4.6-13.6-2.3Z"/>
  <circle class="cls-2" cx="35.2" cy="11.6" r="2"/>
  <circle class="cls-2" cx="31.4" cy="13.1" r="1.5"/>
  <circle class="cls-2" cx="34" cy="15.1" r="1.1"/>
  <g>
    <path class="cls-1" d="M45.9,18.6V4.9h5.1c1.1,0,2,.2,2.8.6.7.4,1.3.9,1.6,1.5.4.6.5,1.4.5,2.2s-.2,1.4-.5,2.1c-.4.6-.9,1.2-1.6,1.6-.7.4-1.7.6-2.8.6h-2.5v5.1h-2.6ZM48.5,11.3h2.3c.9,0,1.5-.2,1.8-.6.4-.4.6-.9.6-1.6s-.2-1.2-.6-1.6c-.4-.4-1-.6-1.8-.6h-2.3v4.3Z"/>
    <path class="cls-1" d="M60.5,18.9c-.8,0-1.5-.1-2-.4-.5-.3-.9-.6-1.2-1.1-.3-.5-.4-.9-.4-1.5s.2-1.1.5-1.6.8-.8,1.4-1.1c.6-.3,1.4-.4,2.4-.4h2.4c0-.5,0-.9-.2-1.2-.1-.3-.3-.5-.6-.7-.3-.2-.6-.2-1.1-.2s-.9.1-1.3.3c-.3.2-.6.5-.6,1h-2.6c0-.7.3-1.3.7-1.8.4-.5.9-.9,1.6-1.2.7-.3,1.4-.4,2.2-.4s1.7.2,2.4.5,1.2.8,1.6,1.4c.4.6.5,1.3.5,2.2v6.1h-2.2l-.3-1.5c-.1.3-.3.5-.5.7-.2.2-.4.4-.7.5-.3.2-.6.3-.9.4s-.7.1-1.1.1ZM61.2,16.8c.3,0,.6,0,.9-.2.3-.1.5-.3.7-.5s.4-.5.5-.7c.1-.3.2-.6.2-.9h0s-2,0-2,0c-.4,0-.8,0-1,.1-.3,0-.4.2-.6.4-.1.2-.2.4-.2.6s0,.5.2.6c.1.2.3.3.5.4.2,0,.5.1.8.1Z"/>
    <path class="cls-1" d="M68.7,22.9v-14.2h2.3l.3,1.4c.2-.3.4-.5.7-.8.3-.2.6-.4,1-.6.4-.1.9-.2,1.4-.2.9,0,1.8.2,2.5.7.7.4,1.3,1.1,1.7,1.8.4.8.6,1.7.6,2.7s-.2,1.9-.6,2.7c-.4.8-1,1.4-1.7,1.8-.7.4-1.5.7-2.4.7s-1.3-.1-1.9-.4c-.5-.3-1-.6-1.3-1.1v5.6h-2.6ZM73.9,16.5c.5,0,1-.1,1.4-.4.4-.2.7-.6.9-1s.3-.9.3-1.5-.1-1.1-.3-1.5c-.2-.4-.5-.8-.9-1-.4-.2-.9-.4-1.4-.4s-1,.1-1.4.4c-.4.2-.7.6-.9,1-.2.4-.3.9-.3,1.5s.1,1.1.3,1.5c.2.4.5.8.9,1,.4.2.9.4,1.4.4Z"/>
    <path class="cls-1" d="M82.9,7.4c-.5,0-.9-.1-1.2-.4-.3-.3-.5-.6-.5-1.1s.2-.8.5-1.1c.3-.3.7-.4,1.2-.4s.9.1,1.2.4c.3.3.5.6.5,1.1s-.2.8-.5,1.1c-.3.3-.7.4-1.2.4ZM81.6,18.6v-9.9h2.6v9.9h-2.6Z"/>
    <path class="cls-1" d="M91.3,18.6c-.7,0-1.3-.1-1.8-.3-.5-.2-.9-.6-1.2-1.1-.3-.5-.4-1.2-.4-2.1v-4.2h-1.7v-2.2h1.7l.3-2.7h2.3v2.7h2.6v2.2h-2.6v4.2c0,.4,0,.8.3.9s.5.3,1,.3h1.3v2.3h-1.8Z"/>
    <path class="cls-1" d="M98.7,18.9c-.8,0-1.5-.1-2-.4-.5-.3-.9-.6-1.2-1.1s-.4-.9-.4-1.5.2-1.1.5-1.6.8-.8,1.4-1.1c.6-.3,1.4-.4,2.4-.4h2.4c0-.5,0-.9-.2-1.2-.1-.3-.3-.5-.6-.7-.3-.2-.6-.2-1.1-.2s-.9.1-1.3.3c-.3.2-.6.5-.6,1h-2.6c0-.7.3-1.3.7-1.8.4-.5.9-.9,1.6-1.2.7-.3,1.4-.4,2.2-.4s1.7.2,2.4.5c.7.3,1.2.8,1.6,1.4.4.6.5,1.3.5,2.2v6.1h-2.2l-.3-1.5c-.1.3-.3.5-.5.7-.2.2-.4.4-.7.5-.3.2-.6.3-.9.4s-.7.1-1.1.1ZM99.3,16.8c.3,0,.6,0,.9-.2s.5-.3.7-.5c.2-.2.4-.5.5-.7.1-.3.2-.6.2-.9h0s-2,0-2,0c-.4,0-.8,0-1,.1-.3,0-.4.2-.6.4-.1.2-.2.4-.2.6s0,.5.2.6c.1.2.3.3.5.4.2,0,.5.1.8.1Z"/>
    <path class="cls-1" d="M113,18.9c-1.4,0-2.5-.3-3.5-.9-1-.6-1.8-1.4-2.3-2.5-.5-1.1-.8-2.3-.8-3.7s.3-2.6.8-3.7c.5-1.1,1.3-1.9,2.3-2.5,1-.6,2.2-.9,3.5-.9s3,.4,4.1,1.2c1.1.8,1.7,2,2,3.5h-2.9c-.2-.7-.5-1.3-1.1-1.7s-1.2-.6-2.1-.6-1.5.2-2.1.6c-.6.4-1,.9-1.3,1.6-.3.7-.5,1.5-.5,2.5s.2,1.8.5,2.5c.3.7.7,1.2,1.3,1.6.6.4,1.3.6,2.1.6s1.6-.2,2.1-.6c.5-.4.9-.9,1.1-1.6h2.9c-.2,1.4-.9,2.5-2,3.3-1.1.8-2.4,1.2-4.1,1.2Z"/>
    <path class="cls-1" d="M125.9,18.9c-1,0-1.8-.2-2.6-.7-.8-.4-1.3-1-1.8-1.8-.4-.8-.7-1.7-.7-2.7s.2-1.9.7-2.7c.4-.8,1-1.4,1.8-1.8.8-.4,1.6-.7,2.6-.7s1.8.2,2.5.7c.7.4,1.3,1,1.8,1.8.4.8.7,1.7.7,2.7s-.2,1.9-.7,2.7c-.4.8-1,1.4-1.8,1.8-.8.4-1.6.7-2.6.7ZM125.9,16.6c.4,0,.8-.1,1.1-.3s.6-.5.8-1c.2-.4.3-1,.3-1.6s-.1-1.2-.3-1.6c-.2-.4-.5-.7-.8-1-.3-.2-.7-.3-1.1-.3s-.8.1-1.2.3-.6.5-.8,1c-.2.4-.3,1-.3,1.6s.1,1.2.3,1.6.5.8.8,1,.7.3,1.2.3Z"/>
    <path class="cls-1" d="M134.6,7.4c-.5,0-.9-.1-1.2-.4-.3-.3-.5-.6-.5-1.1s.2-.8.5-1.1c.3-.3.7-.4,1.2-.4s.9.1,1.2.4c.3.3.5.6.5,1.1s-.2.8-.5,1.1c-.3.3-.7.4-1.2.4ZM133.2,18.6v-9.9h2.6v9.9h-2.6Z"/>
    <path class="cls-1" d="M138.6,18.6v-9.9h2.3l.2,1.6c.3-.6.7-1,1.3-1.4.6-.3,1.2-.5,2-.5s1.5.2,2.1.5,1,.8,1.3,1.5c.3.7.5,1.4.5,2.4v5.7h-2.6v-5.5c0-.8-.2-1.4-.5-1.8-.3-.4-.9-.6-1.5-.6s-.8.1-1.2.3c-.3.2-.6.5-.8.9-.2.4-.3.9-.3,1.4v5.2h-2.6Z"/>
  </g>
</svg>